<?xml version="1.0" encoding="UTF-8"?>
<svg id="Layer_2" data-name="Layer 2" xmlns="http://www.w3.org/2000/svg" viewBox="0 0 173.49 174.75">
  <g id="Layer_1-2" data-name="Layer 1">
    <path d="M99.02,122.67c3.02,3.58,6.54,6.57,10.57,8.94,5.58,3.28,12.08,4.91,19.48,4.91,6.55,0,12.53-1.25,17.93-3.74,1.62-.75,3.15-1.62,4.64-2.55.38-.23.74-.51,1.12-.75.65-.44,1.32-.86,1.94-1.33,2.49-1.85,4.8-3.96,6.86-6.4,3.82-4.5,6.77-9.66,8.83-15.5,2.06-5.84,3.09-12.04,3.09-18.6,0-.09-.01-.18-.01-.27,0-.09.01-.18.01-.27,0-6.57-1.03-12.77-3.09-18.6-2.06-5.84-5.01-11-8.83-15.5-2.07-2.44-4.37-4.55-6.87-6.4-.62-.47-1.28-.88-1.92-1.32-.38-.25-.75-.53-1.14-.77-1.49-.93-3.02-1.8-4.64-2.55-5.4-2.49-11.38-3.74-17.93-3.74-7.4,0-13.89,1.64-19.48,4.91-4.04,2.37-7.55,5.36-10.57,8.94v-7.24s-.11-3.29,0-4.38c.29-2.94,1.65-8.22,3.75-11.2,2.61-3.71,6.07-6.45,10.38-8.23,4.31-1.77,9.07-2.65,14.29-2.65,6.19,0,12.04,1.28,17.57,3.82,5.52,2.55,10.1,6.07,13.74,10.56l13.29-12.92c-5.1-6.31-11.22-11.2-18.39-14.65-7.16-3.46-15.9-5.19-26.21-5.19s-19.29,1.78-27.3,5.33c-5.19,2.31-9.65,5.28-13.39,8.91-3.74-3.62-8.19-6.6-13.39-8.91C65.35,1.78,56.25,0,46.05,0s-19.05,1.73-26.21,5.19C12.68,8.65,6.55,13.53,1.46,19.84l13.29,12.92c3.64-4.49,8.22-8.01,13.74-10.56,5.52-2.55,11.38-3.82,17.57-3.82,5.22,0,9.98.89,14.29,2.65,4.31,1.77,7.76,4.51,10.38,8.23,2.1,2.98,3.46,8.26,3.75,11.2.11,1.09,0,4.38,0,4.38v7.24c-3.02-3.58-6.54-6.57-10.57-8.94-5.58-3.28-12.08-4.91-19.48-4.91-6.55,0-12.53,1.25-17.93,3.74-1.62.75-3.15,1.62-4.64,2.55-.39.24-.75.52-1.14.77-.64.43-1.3.85-1.92,1.32-2.5,1.85-4.8,3.96-6.87,6.4-3.82,4.5-6.77,9.66-8.83,15.5-2.06,5.84-3.09,12.04-3.09,18.6,0,.09.01.18.01.27,0,.09-.01.18-.01.27,0,6.57,1.03,12.77,3.09,18.6,2.06,5.84,5.01,11,8.83,15.5,2.07,2.43,4.37,4.55,6.86,6.4.63.48,1.29.89,1.94,1.33.38.25.73.52,1.12.75,1.49.93,3.02,1.8,4.64,2.55,5.4,2.49,11.38,3.74,17.93,3.74,7.4,0,13.89-1.64,19.48-4.91,4.04-2.37,7.55-5.36,10.57-8.94v11.61c-.41,4.48-1.65,8.22-3.75,11.2-2.61,3.71-6.07,6.45-10.38,8.23-4.31,1.77-9.07,2.65-14.29,2.65-6.19,0-12.04-1.28-17.57-3.82-5.52-2.55-10.1-6.07-13.74-10.56l-13.29,12.92c5.1,6.31,11.22,11.2,18.39,14.65,7.16,3.46,15.9,5.19,26.21,5.19s19.29-1.78,27.3-5.33c5.19-2.31,9.65-5.28,13.39-8.91,3.74,3.62,8.19,6.6,13.39,8.91,8.01,3.55,17.11,5.33,27.3,5.33s19.05-1.73,26.21-5.19c7.16-3.46,13.29-8.35,18.39-14.65l-13.29-12.92c-3.64,4.49-8.22,8.01-13.74,10.56-5.52,2.55-11.38,3.82-17.57,3.82-5.22,0-9.98-.89-14.29-2.65-4.31-1.77-7.76-4.51-10.38-8.23-2.1-2.98-3.34-6.73-3.75-11.2v-11.61ZM104.96,67.74c2.61-2.8,5.52-4.96,8.74-6.48,3.22-1.52,6.58-2.28,10.1-2.28,3.76,0,7.16.79,10.19,2.38,3.04,1.58,5.64,3.8,7.83,6.66,2.18,2.86,3.85,6.03,5.01,9.5,1.05,3.16,1.6,6.45,1.69,9.86-.09,3.41-.64,6.7-1.69,9.86-1.15,3.47-2.82,6.64-5.01,9.5-2.18,2.86-4.79,5.08-7.83,6.66-3.03,1.58-6.43,2.38-10.19,2.38-3.52,0-6.89-.76-10.1-2.28-3.21-1.52-6.13-3.68-8.74-6.48-2.52-2.7-4.49-5.87-5.93-9.48v-20.3c1.44-3.61,3.41-6.78,5.93-9.48ZM68.53,107.01c-2.61,2.8-5.52,4.96-8.74,6.48-3.22,1.52-6.58,2.28-10.1,2.28-3.76,0-7.16-.79-10.19-2.38-3.04-1.58-5.64-3.8-7.83-6.66-2.18-2.86-3.85-6.03-5.01-9.5-1.05-3.16-1.6-6.45-1.69-9.86.09-3.41.64-6.7,1.69-9.86,1.15-3.47,2.82-6.64,5.01-9.5,2.18-2.86,4.79-5.08,7.83-6.66,3.03-1.58,6.43-2.38,10.19-2.38,3.52,0,6.89.76,10.1,2.28,3.21,1.52,6.13,3.68,8.74,6.48,2.52,2.7,4.49,5.87,5.93,9.48v20.3c-1.44,3.61-3.41,6.78-5.93,9.48Z" stroke-width="0"/>
  </g>
</svg>